<svg width="166" height="22" viewBox="0 0 166 22" fill="none" xmlns="http://www.w3.org/2000/svg">
<path fill-rule="evenodd" clip-rule="evenodd" d="M3.45727 12.9343C4.88226 12.9343 6.06417 13.9754 6.64351 15.2773C8.28322 18.9621 11.9765 21.5312 16.2699 21.5312H154.969C160.785 21.5312 165.5 16.8162 165.5 11C165.5 5.18375 160.785 0.46875 154.969 0.46875H16.2699C11.9765 0.46875 8.28324 3.03791 6.64352 6.7227C6.06418 8.02461 4.88227 9.06567 3.45728 9.06567H2.43449C1.3662 9.06567 0.500183 9.93169 0.500183 11C0.500183 12.0683 1.3662 12.9343 2.43449 12.9343H3.45727ZM99.5005 15.1526V5.96875H108.733V7.46749H101.46V9.62313H107.012V11.1697H101.46V13.6525H108.793L109.387 14.9806C109.387 15.0219 109.253 15.0607 108.987 15.0982C108.72 15.1344 108.259 15.1526 107.606 15.1526H99.5005ZM60.6256 15.1691L60.6108 7.46983H56.7509V5.97109H66.4593V7.46983H62.5846V15.1691H60.6256ZM72.3971 15.1695V5.9857H74.356V15.1695H72.3971ZM81.3332 7.23627V15.1696L81.3344 15.1709H83.2934V9.34537H83.4416L84.0357 10.7044L85.9058 14.2347H87.7017L89.5717 10.7044L90.151 9.34537H90.3141V15.1709H92.273V5.98711H90.2696L86.7963 12.2342L83.4416 5.98711H81.185L81.3332 7.23627Z" fill="url(#paint0_linear_206_329)"/>
<defs>
<linearGradient id="paint0_linear_206_329" x1="17.5667" y1="-5.74012" x2="167.644" y2="-5.74012" gradientUnits="userSpaceOnUse">
<stop offset="0.251308" stop-color="#996DFF"/>
<stop offset="0.623787" stop-color="#FF876E"/>
<stop offset="1" stop-color="#FFD072"/>
</linearGradient>
</defs>
</svg>
